<?xml version="1.0" standalone="no"?>
<!DOCTYPE svg PUBLIC "-//W3C//DTD SVG 20010904//EN"
 "http://www.w3.org/TR/2001/REC-SVG-20010904/DTD/svg10.dtd">
<svg version="1.0" xmlns="http://www.w3.org/2000/svg"
 width="32pt" height="32pt" viewBox="0 0 256.000000 256.000000"
 preserveAspectRatio="xMidYMid meet">

<g transform="translate(0.000000,256.000000) scale(0.100000,-0.100000)"
fill="#000000" stroke="none">
<path d="M224 2413 c-12 -2 -34 -18 -50 -34 l-29 -30 -3 -417 c-3 -446 -1
-476 45 -511 25 -20 37 -21 465 -21 282 0 446 4 459 10 48 26 49 40 49 502 0
385 -2 436 -16 457 -35 49 -53 51 -491 50 -224 -1 -418 -4 -429 -6z"/>
<path d="M1474 2406 c-66 -29 -64 -14 -64 -504 l0 -444 29 -29 29 -29 445 0
c432 0 445 1 470 20 15 12 31 38 37 58 6 22 10 193 10 435 0 424 -2 439 -50
482 -21 19 -38 20 -449 22 -344 2 -432 0 -457 -11z"/>
<path d="M194 1131 c-17 -11 -36 -34 -43 -52 -7 -22 -11 -163 -11 -441 0 -359
2 -414 16 -444 31 -66 26 -65 510 -62 l436 3 29 33 29 32 0 441 0 441 -34 34
-34 34 -434 0 c-408 0 -435 -1 -464 -19z"/>
<path d="M1790 1134 c-90 -24 -161 -65 -230 -134 -73 -72 -112 -138 -135 -225
-19 -74 -19 -193 0 -264 70 -265 350 -433 609 -366 321 84 481 427 336 721
-105 215 -352 329 -580 268z"/>
</g>
</svg>
